<?xml version="1.0" encoding="utf-8"?>
<!-- Generator: Adobe Illustrator 25.0.1, SVG Export Plug-In . SVG Version: 6.00 Build 0)  -->
<svg version="1.1" id="Layer_1" xmlns="http://www.w3.org/2000/svg" xmlns:xlink="http://www.w3.org/1999/xlink" x="0px" y="0px"
	 viewBox="0 0 216 163.3" style="enable-background:new 0 0 216 163.3;" xml:space="preserve">
<style type="text/css">
	.st0{fill:#FFFFFF;}
</style>
<g>
	<g>
		<path class="st0" d="M146.6,25.8c-0.9,0-0.8,0.5-2.4,0.8c-1.6,0.2-0.7-0.6-0.9-1.2c-0.2-0.6-0.6-0.5-1.3-0.8
			c-0.7-0.2-0.7,0.4-2.6,0.8c-1.9,0.5-1.3,0-2.5-0.5c-1.2-0.4-1.3-0.9-3-2c-1.7-1.1-0.8,0.7-2.4,2.1c-1.6,1.4-3.7,1.7-4.2,1.7
			c-0.5,0-1.2-1.5-1.5-1.7c-0.3-0.3-0.8-0.3-1.6-1.1c-0.8-0.8-1.1-0.9-2.7-1.5c-1.6-0.6-1.1,0.7-1.7,1.4c-0.7,0.7-1.5-0.5-1.8-1
			c-0.3-0.5-0.1-1-0.3-1.5c-0.2-0.5-1-0.1-1.4-0.3c-0.4-0.2,0.2-0.9-0.3-1.4c-0.5-0.4-1.3-0.9-3.3-0.8c-2,0.1-3.1,0-3.7-0.2
			c-0.6-0.1-0.3,0.1-0.6,0.6c-0.2,0.5-1.2,1.2-2.2,1.7c-1,0.5-1.6-0.4-2-1c-0.5-0.6-1.6-0.6-2.3-0.8c-0.7-0.2-1,0-1.5-0.4
			c-0.5-0.3-3.2-0.7-4.7-1c-1.6-0.3-1.1-1.3-1.1-2.4c0-1.1-0.2-2.1-0.5-3c-0.3-0.9-0.9-2.2-0.8-3.2c0.1-0.9-0.8-1.3-0.8-1.3
			s-0.3,0-1.6-0.2c-1.3-0.2-0.9,2.1-0.9,2.1l0,3.9c-4.4-0.7-20.3,0.8-20.3,0.8s-0.4,1.7,0,3.3c0.4,1.7-0.4,1.5,0,2.6
			s-0.4,0.3,0.1,3.9c0.5,3.6,1,7.4,1.7,9.1c0.7,1.7,1,1.8,1.2,3.8c0.2,2-0.7,5.7,0,8.5c0.7,2.8,0,4.8,1.3,7.2c1.3,2.4,1.7,3.6,1.7,4
			c0,0.4,0,2.9,0,4c0,0.3,0,0.4,0,0.4s0.1,1.8-1.3,2.6c-1.4,0.9-2.6,2.5-2,3.5c0.6,1,1.8,1.8,2.5,2.3c0.7,0.5,1.5,0.9,1.5,2.9
			c0.1,2,0,3,0.3,4c0.3,1-0.2,4.4,0,4.8c0.2,0.4,0.3,13.8,0.4,17l59-0.5c0,0,1.3-4.9-1-6.7c-2.2-1.8-5.1-3.8-5.6-4.5
			c-0.6-0.7,0.6-1.8-5.2-4.6c-0.1-0.1-0.2-0.1-0.4-0.2c-1.9,1.7-3.9,3.4-6.1,4.9l-0.6,0.7h-1.6l-0.2-0.1H115l-0.4-0.2
			c-0.1,0-0.1-0.1-0.2-0.1c-0.1,0-0.1-0.1-0.2-0.1c-3.9-2-7.2-4.1-10.3-6.3c-3.2-2.4-5.6-4.7-7.5-7.2c-2.1-2.8-3.3-5.3-3.9-7.9
			c-0.4-1.7-0.7-4.2,0-6.9c0.1-0.4,0.2-0.8,0.3-1.1c1.4-4.2,4.3-7.1,8.6-8.7c2.3-0.9,4.9-1.2,7.8-0.9c0.2,0,0.4,0.1,0.6,0.1
			c-0.2-0.3-0.3-0.7-0.4-1.1c-0.5-1.7-0.5-3.4,0.1-5.3c0,0,0-0.1,0-0.1c0-0.1,0-0.2,0.1-0.3c0.8-2.6,2.2-4.6,4.2-6.2
			c1.4-1.1,2.8-1.6,4.4-1.7c2.2-0.1,4,0.9,5.1,2.9c0.7,1.3,0.9,2.7,0.9,4.1l0,0.1l0,0.1c-0.1,1.3-0.4,2.5-0.8,3.6
			c0.3-0.1,0.7-0.2,1-0.2c0.6-0.1,1.4-0.2,2.2-0.2c0.4-0.3,0.8-0.7,1.2-1c2.2-1.8,6.7-8.1,8.8-9.9c2.1-1.8,6.7-3.6,8.6-4.7
			c1.9-1.1,3-1.6,3-1.6S147.5,25.8,146.6,25.8z"/>
		<path class="st0" d="M115.8,85.7c-0.2-0.1-0.3-0.2-0.5-0.3c-3.5-1.8-6.9-3.8-10-6.2c-2.7-2-5.1-4.2-7.2-6.9
			c-1.7-2.2-3-4.5-3.6-7.2c-0.5-2.2-0.6-4.5,0.1-6.7c1.2-3.6,3.7-6.1,7.3-7.5c2.2-0.8,4.5-1,6.8-0.8c2.4,0.2,4.7,1,6.8,2.2
			c0.2,0.1,0.3,0.1,0.5-0.1c1-1.8,2.5-3.2,4.2-4.4c1.3-0.9,2.7-1.6,4.2-1.8c1.3-0.2,2.5-0.3,3.8,0c1.1,0.2,1.9,0.9,2.6,1.7
			c0.5,0.6,0.5,1.4,0.5,2.1c0,1.4-0.4,2.7-1.2,3.8c-0.9,1.4-1.9,2.7-3.1,3.9c-2.5,2.4-5.3,4.2-8.7,5c-2.4,0.5-4.8,0.6-7.2,0.4
			c-1-0.1-2-0.3-3-0.5c-0.1,0-0.2-0.1-0.3,0c-0.2,0.1-0.5,0.1-0.5,0.3c-0.1,0.1,0.1,0.4,0.2,0.5c0.3,0.2,0.7,0.4,1,0.5
			c0.7,0.2,1.5,0.3,2.3,0.5c0.1,0,0.3,0,0.4,0.1c0.1,0.1,0.2,0.2,0.3,0.3c-0.1,0.1-0.2,0.2-0.3,0.3c-0.4,0-0.9,0.1-1.3,0.1
			c-1.6,0-3.3-0.1-4.9-0.2c-0.2,0-0.4,0-0.5,0c-0.2,0.1-0.4,0.2-0.4,0.4c0,0.2,0.2,0.4,0.3,0.5c0.1,0.1,0.3,0.1,0.5,0.1
			c1.4,0.1,2.8,0.2,4.1,0.3c0.2,0,0.4,0.2,0.4,0.3c0,0.3-0.2,0.3-0.4,0.4c-0.2,0-0.5,0-0.7,0c-1.4,0-2.8-0.1-4.2-0.1
			c-0.2,0-0.5,0-0.7,0.1c-0.2,0.1-0.4,0.2-0.4,0.3c0,0.1,0.1,0.4,0.2,0.5c0.2,0.1,0.5,0.2,0.8,0.2c1.4,0.1,2.7,0.1,4.1,0.1
			c0.2,0,0.5,0,0.7,0.1c0.1,0,0.4,0.2,0.3,0.3c0,0.1-0.2,0.3-0.3,0.4c-0.1,0.1-0.2,0-0.3,0c-1.2,0-2.3,0-3.5,0c-0.1,0-0.2,0-0.3,0
			c-0.3,0-0.5,0.1-0.5,0.4c0,0.3,0.3,0.4,0.6,0.4c0.4,0,0.9,0,1.3,0c0.9,0,1.9,0.1,2.8,0.1c0,0,0.1,0,0.1,0c0.3,0,0.6,0,0.7,0.4
			c0,0.3-0.4,0.4-0.6,0.4c-0.6,0-1.1,0-1.7,0c-0.4,0-0.8,0-1.2,0.1c-0.2,0-0.5,0.1-0.5,0.4c0,0.3,0.2,0.4,0.5,0.4
			c4,0.3,7.9,0.1,11.7-1c3.5-1,6.5-3,8.9-5.8c1.1-1.3,2-2.8,2.9-4.3c0.1-0.3,0.3-0.6,0.6-0.5c0.4,0.1,0.2,0.5,0.2,0.7
			c-0.1,0.8-0.5,1.5-0.9,2.2c-0.2,0.4-0.5,0.8-0.7,1.2c-0.1,0.2,0,0.4-0.1,0.5c0.2,0,0.4,0,0.6-0.1c0.2-0.1,0.3-0.3,0.5-0.5
			c1.2-1.5,2.3-3.1,3.5-4.6c0.1-0.2,0.3-0.4,0.5-0.5c0.1-0.1,0.4-0.1,0.5-0.1c0.1,0.1,0.2,0.3,0.1,0.5c0,0.2-0.1,0.3-0.2,0.5
			c-0.8,1.1-1.6,2.1-2.4,3.2c-0.1,0.2-0.3,0.4-0.4,0.6c-0.1,0.3,0.1,0.5,0.4,0.4c0.2-0.1,0.4-0.2,0.5-0.4c1.1-1.4,2.3-2.9,3.4-4.3
			c0.3-0.3,0.5-0.5,0.7-0.3c0.2,0.2,0.2,0.5,0,0.8c-1,1.4-2.1,2.7-3.1,4.1c-0.1,0.2-0.2,0.4-0.3,0.6c0,0.1,0,0.3,0.1,0.4
			c0.1,0.1,0.3,0,0.4,0c0.2-0.1,0.3-0.3,0.4-0.4c0.8-0.9,1.5-1.8,2.3-2.7c0.1-0.1,0.2-0.3,0.4-0.3c0.1-0.1,0.3,0,0.4,0
			c0.1,0.1,0.1,0.3,0.1,0.4c0,0.1-0.1,0.2-0.2,0.3c-0.9,1.1-1.7,2.3-2.6,3.4c-0.1,0.1-0.2,0.2-0.2,0.3c0,0.1,0,0.3-0.1,0.5
			c0.2,0,0.3,0.1,0.5,0c0.1,0,0.3-0.2,0.4-0.3c0.5-0.6,1.1-1.1,1.6-1.7c0.2-0.2,0.4-0.5,0.6-0.3c0.3,0.2,0.1,0.5-0.1,0.8
			c-0.6,0.8-1.3,1.6-1.9,2.4c-2.5,3-5.2,5.9-8,8.6c-3.5,3.4-7.1,6.8-11.2,9.6c-0.1,0-0.1,0.1-0.2,0.2
			C115.9,85.7,115.8,85.7,115.8,85.7z"/>
		<path class="st0" d="M122,40.4c-0.3,3.1-1.7,5.9-4.7,7.8c-0.9,0.6-1.9,0.9-3,0.7c-1.6-0.2-2.5-1.2-2.9-2.7
			c-0.5-1.5-0.3-2.9,0.1-4.4c0.6-2.1,1.8-3.8,3.5-5.1c0.9-0.7,2-1.2,3.2-1.3c1.5-0.1,2.5,0.6,3.2,1.8C121.9,38.2,122,39.1,122,40.4z
			"/>
	</g>
	<path class="st0" d="M38.8,106.3c0.6,0.5,0.8,1.2,0.8,2v26.6c0,0.8-0.3,1.5-0.8,2c-0.5,0.5-1.2,0.8-2.1,0.8c-0.9,0-1.6-0.3-2.1-0.8
		c-0.5-0.5-0.8-1.2-0.8-2v-18.5l-7.6,11.6c-0.3,0.4-0.7,0.7-1.1,0.9c-0.4,0.2-0.8,0.3-1.2,0.3c-0.4,0-0.8-0.1-1.2-0.3
		c-0.4-0.2-0.7-0.5-1.1-0.9l-7.6-12v18.9c0,0.8-0.2,1.5-0.7,2c-0.5,0.5-1.1,0.8-1.9,0.8c-0.8,0-1.4-0.3-1.9-0.8
		c-0.5-0.5-0.7-1.2-0.7-2v-26.6c0-0.8,0.3-1.4,0.8-2c0.6-0.6,1.2-0.8,2-0.8c0.5,0,0.9,0.1,1.4,0.3c0.5,0.2,0.8,0.5,1.1,0.9l10,15.4
		l10.3-15.4c0.2-0.4,0.6-0.7,1-0.9c0.4-0.2,0.8-0.3,1.3-0.3C37.5,105.5,38.2,105.7,38.8,106.3z"/>
	<path class="st0" d="M49,109.6c-0.4-0.3-0.6-0.9-0.6-1.8v-0.9c0-0.9,0.2-1.5,0.7-1.8c0.5-0.3,1.2-0.5,2.2-0.5
		c1.1,0,1.8,0.2,2.2,0.5c0.4,0.3,0.6,0.9,0.6,1.8v0.9c0,0.9-0.2,1.5-0.7,1.8c-0.4,0.3-1.2,0.5-2.3,0.5
		C50.1,110.1,49.4,109.9,49,109.6z M53.2,136.8c-0.5,0.5-1.2,0.8-2,0.8c-0.8,0-1.5-0.3-2-0.8c-0.5-0.5-0.8-1.2-0.8-2v-18.9
		c0-0.8,0.3-1.5,0.8-2c0.5-0.5,1.2-0.8,2-0.8c0.8,0,1.5,0.3,2,0.8c0.5,0.5,0.8,1.2,0.8,2v18.9C54,135.6,53.7,136.3,53.2,136.8z"/>
	<path class="st0" d="M81.9,115.4c1.2,1.9,1.8,4.4,1.8,7.7v11.7c0,0.8-0.3,1.5-0.8,2c-0.5,0.5-1.2,0.8-2,0.8c-0.8,0-1.5-0.3-2-0.8
		c-0.5-0.5-0.8-1.2-0.8-2v-11.7c0-1.7-0.4-3-1.1-4c-0.7-1-1.9-1.4-3.6-1.4c-1.8,0-3.2,0.5-4.2,1.5c-1,1-1.5,2.3-1.5,3.9v11.7
		c0,0.8-0.3,1.5-0.8,2c-0.5,0.5-1.2,0.8-2,0.8c-0.8,0-1.5-0.3-2-0.8c-0.5-0.5-0.8-1.2-0.8-2v-18.9c0-0.8,0.3-1.5,0.8-2
		c0.5-0.5,1.2-0.8,2-0.8c0.8,0,1.5,0.3,2,0.8c0.5,0.5,0.8,1.2,0.8,2v0.8c0.8-1.1,1.9-2,3.2-2.8c1.3-0.8,2.8-1.2,4.4-1.2
		C78.6,112.6,80.7,113.5,81.9,115.4z"/>
	<path class="st0" d="M112,115.4c1.2,1.9,1.8,4.4,1.8,7.7v11.7c0,0.8-0.3,1.5-0.8,2c-0.5,0.5-1.2,0.8-2,0.8c-0.8,0-1.5-0.3-2-0.8
		c-0.5-0.5-0.8-1.2-0.8-2v-11.7c0-1.7-0.4-3-1.1-4c-0.7-1-1.9-1.4-3.6-1.4c-1.8,0-3.2,0.5-4.2,1.5c-1,1-1.5,2.3-1.5,3.9v11.7
		c0,0.8-0.3,1.5-0.8,2c-0.5,0.5-1.2,0.8-2,0.8c-0.8,0-1.5-0.3-2-0.8c-0.5-0.5-0.8-1.2-0.8-2v-18.9c0-0.8,0.3-1.5,0.8-2
		c0.5-0.5,1.2-0.8,2-0.8c0.8,0,1.5,0.3,2,0.8c0.5,0.5,0.8,1.2,0.8,2v0.8c0.8-1.1,1.9-2,3.2-2.8c1.3-0.8,2.8-1.2,4.4-1.2
		C108.7,112.6,110.8,113.5,112,115.4z"/>
	<path class="st0" d="M146.9,109.4c0,0.6-0.2,1.3-0.7,1.9c-0.5,0.6-1.1,1-1.9,1c-0.5,0-1-0.1-1.6-0.4c-1.5-0.7-3.1-1.1-4.9-1.1
		c-2.1,0-4,0.5-5.6,1.4c-1.6,0.9-2.8,2.2-3.7,3.8c-0.9,1.6-1.3,3.5-1.3,5.6c0,3.6,1,6.3,2.9,8.2c1.9,1.9,4.5,2.8,7.6,2.8
		c1.9,0,3.5-0.4,4.9-1.1c0.6-0.2,1-0.4,1.5-0.4c0.8,0,1.5,0.3,2,1c0.5,0.6,0.7,1.2,0.7,1.9c0,0.5-0.1,0.9-0.4,1.3
		c-0.2,0.4-0.6,0.7-1.1,0.9c-2.4,1.2-4.9,1.8-7.6,1.8c-3,0-5.7-0.6-8.3-1.9c-2.5-1.3-4.5-3.1-6-5.6c-1.5-2.5-2.2-5.5-2.2-9
		c0-3.1,0.7-5.9,2.1-8.4c1.4-2.5,3.4-4.4,5.9-5.8c2.5-1.4,5.3-2.1,8.5-2.1c2.7,0,5.2,0.6,7.6,1.8
		C146.4,107.6,146.9,108.3,146.9,109.4z"/>
	<path class="st0" d="M179.9,135.1c0,0.8-0.3,1.4-0.8,1.9c-0.5,0.5-1.1,0.8-1.8,0.8c-0.6,0-1-0.2-1.5-0.5c-0.4-0.3-0.8-0.8-1-1.4
		l-2.4-5.5h-13.7l-2.4,5.6c-0.2,0.6-0.5,1-1,1.4c-0.4,0.3-0.9,0.5-1.4,0.5c-0.8,0-1.4-0.2-1.8-0.6c-0.4-0.4-0.6-1-0.6-1.7
		c0-0.3,0-0.6,0.1-0.9l11.4-27.4c0.2-0.6,0.6-1.1,1.1-1.4c0.5-0.3,1-0.5,1.7-0.4c0.6,0,1.1,0.2,1.5,0.5c0.5,0.3,0.8,0.8,1,1.4
		l11.3,26.9C179.8,134.4,179.9,134.8,179.9,135.1z M161,125.1h9.2l-4.6-10.7L161,125.1z"/>
	<path class="st0" d="M204.2,106.9c1.4,0.9,2.5,2.2,3.4,3.8c0.9,1.6,1.3,3.3,1.3,5.2c0,1.8-0.4,3.5-1.3,5.1c-0.9,1.6-2,2.9-3.4,3.8
		c-1.4,0.9-2.9,1.4-4.4,1.4h-8v8.7c0,0.8-0.2,1.5-0.7,2c-0.5,0.5-1.1,0.8-1.9,0.8c-0.8,0-1.4-0.3-1.9-0.8c-0.5-0.5-0.7-1.2-0.7-2
		v-26.5c0-0.8,0.3-1.5,0.8-2c0.5-0.5,1.2-0.8,2-0.8h10.5C201.3,105.5,202.8,106,204.2,106.9z M201.5,120.2c0.6-0.5,1-1.1,1.4-1.9
		c0.4-0.8,0.5-1.6,0.5-2.5c0-0.9-0.2-1.7-0.5-2.5c-0.4-0.8-0.8-1.4-1.4-1.9c-0.6-0.5-1.1-0.7-1.7-0.7h-8v10.1h8
		C200.4,120.9,200.9,120.7,201.5,120.2z"/>
	<polygon class="st0" points="16.2,150.2 15.8,145.4 14.4,145.4 13.4,148.4 12.4,145.4 11,145.4 10.6,150.2 11.6,150.2 11.9,146.6 
		13.1,150.2 13.7,150.2 14.9,146.6 15.2,150.2 	"/>
	<rect x="18.2" y="145.4" class="st0" width="1" height="4.8"/>
	<polygon class="st0" points="24.5,145.4 24.5,148.8 22.4,145.4 21.3,145.4 21.3,150.2 22.3,150.2 22.3,146.8 24.4,150.2 
		25.5,150.2 25.5,145.4 	"/>
	<polygon class="st0" points="30.9,145.4 30.9,148.8 28.8,145.4 27.6,145.4 27.6,150.2 28.6,150.2 28.6,146.8 30.7,150.2 
		31.9,150.2 31.9,145.4 	"/>
	<polygon class="st0" points="36.8,146.3 36.8,145.4 34,145.4 34,150.2 36.8,150.2 36.8,149.3 35,149.3 35,148.2 36.6,148.2 
		36.6,147.4 35,147.4 35,146.3 	"/>
	<path class="st0" d="M40.3,150.2c1,0,1.8-0.5,1.8-1.4c0-1-0.8-1.2-1.6-1.5c-0.5-0.2-1-0.3-1-0.7c0-0.4,0.3-0.5,0.7-0.5
		c0.4,0,0.8,0.2,0.9,0.7l0.9-0.2c-0.2-0.9-1-1.3-1.9-1.3c-1,0-1.7,0.5-1.7,1.4c0,0.9,0.7,1.1,1.4,1.4c0.6,0.2,1.1,0.3,1.1,0.8
		c0,0.4-0.3,0.6-0.7,0.6c-0.5,0-0.9-0.3-1-0.8l-1,0.2C38.4,149.7,39.2,150.2,40.3,150.2z"/>
	<path class="st0" d="M46,149.3c-0.8,0-1.5-0.6-1.5-1.5c0-1,0.6-1.5,1.5-1.5s1.5,0.6,1.5,1.5C47.4,148.8,46.8,149.3,46,149.3z
		 M46,150.2c1.4,0,2.4-1,2.4-2.5c0-1.5-1-2.4-2.4-2.4c-1.4,0-2.4,1-2.4,2.4C43.5,149.3,44.6,150.2,46,150.2z"/>
	<polygon class="st0" points="53,145.4 49.7,145.4 49.7,146.3 50.8,146.3 50.8,150.2 51.8,150.2 51.8,146.3 53,146.3 	"/>
	<path class="st0" d="M55.7,148.4l0.7-2l0.7,2H55.7z M57.8,150.2h1l-1.8-4.8h-1.2l-1.8,4.8h1l0.3-1h2L57.8,150.2z"/>
	<path class="st0" d="M65.2,150.2c1.1,0,1.9-0.5,2.3-1.5l-0.9-0.3c-0.2,0.6-0.7,0.9-1.3,0.9c-0.8,0-1.5-0.6-1.5-1.5
		c0-1,0.6-1.5,1.5-1.5c0.6,0,1.1,0.3,1.3,0.9l0.9-0.3c-0.3-0.9-1.2-1.4-2.3-1.4c-1.4,0-2.4,1-2.4,2.4
		C62.7,149.3,63.8,150.2,65.2,150.2z"/>
	<path class="st0" d="M71.2,149.3c-0.8,0-1.5-0.6-1.5-1.5c0-1,0.6-1.5,1.5-1.5c0.8,0,1.5,0.6,1.5,1.5
		C72.7,148.8,72.1,149.3,71.2,149.3z M71.2,150.2c1.4,0,2.4-1,2.4-2.5c0-1.5-1-2.4-2.4-2.4c-1.4,0-2.4,1-2.4,2.4
		C68.8,149.3,69.8,150.2,71.2,150.2z"/>
	<polygon class="st0" points="80.9,150.2 80.5,145.4 79.1,145.4 78.1,148.4 77.1,145.4 75.7,145.4 75.3,150.2 76.3,150.2 
		76.6,146.6 77.8,150.2 78.4,150.2 79.6,146.6 79.9,150.2 	"/>
	<polygon class="st0" points="88.3,150.2 87.9,145.4 86.5,145.4 85.5,148.4 84.5,145.4 83.1,145.4 82.7,150.2 83.6,150.2 84,146.6 
		85.2,150.2 85.8,150.2 87,146.6 87.3,150.2 	"/>
	<path class="st0" d="M92,150.2c1,0,1.9-0.5,1.9-1.7v-3.1h-1v3c0,0.7-0.4,1-0.9,1c-0.5,0-0.9-0.3-0.9-1v-3h-1v3.1
		C90.1,149.7,91,150.2,92,150.2z"/>
	<polygon class="st0" points="99.2,145.4 99.2,148.8 97,145.4 95.9,145.4 95.9,150.2 96.9,150.2 96.9,146.8 99,150.2 100.2,150.2 
		100.2,145.4 	"/>
	<rect x="102.3" y="145.4" class="st0" width="1" height="4.8"/>
	<polygon class="st0" points="108.2,145.4 104.9,145.4 104.9,146.3 106,146.3 106,150.2 107,150.2 107,146.3 108.2,146.3 	"/>
	<polygon class="st0" points="110.8,150.2 111.8,150.2 111.8,147.9 113.4,145.4 112.3,145.4 111.3,147 110.3,145.4 109.2,145.4 
		110.8,147.9 	"/>
	<path class="st0" d="M118.7,148.4l0.7-2l0.7,2H118.7z M120.8,150.2h1l-1.8-4.8h-1.2l-1.8,4.8h1l0.3-1h2L120.8,150.2z"/>
	<path class="st0" d="M125.5,150.2c1.1,0,1.9-0.5,2.3-1.5l-0.9-0.3c-0.2,0.6-0.7,0.9-1.3,0.9c-0.8,0-1.5-0.6-1.5-1.5
		c0-1,0.6-1.5,1.5-1.5c0.6,0,1.1,0.3,1.3,0.9l0.9-0.3c-0.3-0.9-1.2-1.4-2.3-1.4c-1.4,0-2.4,1-2.4,2.4
		C123.1,149.3,124.1,150.2,125.5,150.2z"/>
	<polygon class="st0" points="132.2,145.4 129,145.4 129,146.3 130.1,146.3 130.1,150.2 131.1,150.2 131.1,146.3 132.2,146.3 	"/>
	<rect x="133.9" y="145.4" class="st0" width="1" height="4.8"/>
	<path class="st0" d="M139.1,149.3c-0.8,0-1.5-0.6-1.5-1.5c0-1,0.6-1.5,1.5-1.5c0.8,0,1.5,0.6,1.5,1.5
		C140.5,148.8,139.9,149.3,139.1,149.3z M139.1,150.2c1.4,0,2.4-1,2.4-2.5c0-1.5-1-2.4-2.4-2.4c-1.4,0-2.4,1-2.4,2.4
		C136.6,149.3,137.7,150.2,139.1,150.2z"/>
	<polygon class="st0" points="146.6,145.4 146.6,148.8 144.4,145.4 143.3,145.4 143.3,150.2 144.3,150.2 144.3,146.8 146.4,150.2 
		147.6,150.2 147.6,145.4 	"/>
	<path class="st0" d="M154.5,147.5c-0.2,0.1-0.4,0.2-0.8,0.2h-0.4v-1.4h0.4c0.4,0,0.6,0,0.8,0.1c0.1,0.1,0.2,0.3,0.2,0.5
		C154.7,147.2,154.6,147.4,154.5,147.5z M155.1,145.6c-0.3-0.1-0.6-0.2-1.2-0.2h-1.6v4.8h1v-1.7h0.6c0.6,0,0.9-0.1,1.2-0.3
		c0.4-0.3,0.6-0.8,0.6-1.3C155.7,146.3,155.5,145.9,155.1,145.6z"/>
	<path class="st0" d="M158.6,148.4l0.7-2l0.7,2H158.6z M160.6,150.2h1l-1.8-4.8h-1.2l-1.8,4.8h1l0.3-1h2L160.6,150.2z"/>
	<path class="st0" d="M164.3,146.2h0.4c0.4,0,0.6,0,0.7,0.1c0.1,0.1,0.2,0.3,0.2,0.6c0,0.3-0.1,0.5-0.2,0.6
		c-0.1,0.1-0.4,0.1-0.7,0.1h-0.4V146.2z M165.8,150.2h1.2l-1.3-1.9c0.1,0,0.2-0.1,0.3-0.1c0.5-0.3,0.7-0.7,0.7-1.3
		c0-0.6-0.2-1-0.7-1.3c-0.2-0.1-0.6-0.2-1.2-0.2h-1.6v4.8h1v-1.8h0.4L165.8,150.2z"/>
	<polygon class="st0" points="171.4,145.4 168.2,145.4 168.2,146.3 169.3,146.3 169.3,150.2 170.3,150.2 170.3,146.3 171.4,146.3 	
		"/>
	<polygon class="st0" points="176.3,145.4 176.3,148.8 174.2,145.4 173,145.4 173,150.2 174,150.2 174,146.8 176.1,150.2 
		177.3,150.2 177.3,145.4 	"/>
	<polygon class="st0" points="182.2,146.3 182.2,145.4 179.4,145.4 179.4,150.2 182.2,150.2 182.2,149.3 180.4,149.3 180.4,148.2 
		182,148.2 182,147.4 180.4,147.4 180.4,146.3 	"/>
	<path class="st0" d="M185.1,146.2h0.4c0.4,0,0.6,0,0.7,0.1c0.1,0.1,0.2,0.3,0.2,0.6c0,0.3-0.1,0.5-0.2,0.6
		c-0.1,0.1-0.4,0.1-0.7,0.1h-0.4V146.2z M186.6,150.2h1.2l-1.3-1.9c0.1,0,0.2-0.1,0.3-0.1c0.5-0.3,0.7-0.7,0.7-1.3
		c0-0.6-0.2-1-0.7-1.3c-0.2-0.1-0.6-0.2-1.2-0.2h-1.6v4.8h1v-1.8h0.4L186.6,150.2z"/>
	<path class="st0" d="M191,150.2c1,0,1.8-0.5,1.8-1.4c0-1-0.8-1.2-1.6-1.5c-0.5-0.2-1-0.3-1-0.7c0-0.4,0.3-0.5,0.7-0.5
		c0.4,0,0.8,0.2,0.9,0.7l0.9-0.2c-0.2-0.9-1-1.3-1.9-1.3c-1,0-1.7,0.5-1.7,1.4c0,0.9,0.7,1.1,1.4,1.4c0.6,0.2,1.1,0.3,1.1,0.8
		c0,0.4-0.3,0.6-0.7,0.6c-0.5,0-0.9-0.3-1-0.8l-1,0.2C189.2,149.7,190,150.2,191,150.2z"/>
	<polygon class="st0" points="194.6,150.2 195.6,150.2 195.6,148.2 197.6,148.2 197.6,150.2 198.6,150.2 198.6,145.4 197.6,145.4 
		197.6,147.3 195.6,147.3 195.6,145.4 194.6,145.4 	"/>
	<rect x="200.7" y="145.4" class="st0" width="1" height="4.8"/>
	<path class="st0" d="M206.1,147.5c-0.2,0.1-0.4,0.2-0.8,0.2h-0.4v-1.4h0.4c0.4,0,0.6,0,0.8,0.1c0.1,0.1,0.2,0.3,0.2,0.5
		C206.3,147.2,206.2,147.4,206.1,147.5z M206.6,145.6c-0.3-0.1-0.6-0.2-1.2-0.2h-1.6v4.8h1v-1.7h0.6c0.6,0,0.9-0.1,1.2-0.3
		c0.4-0.3,0.6-0.8,0.6-1.3C207.3,146.3,207.1,145.9,206.6,145.6z"/>
</g>
</svg>
