<?xml version="1.0" encoding="utf-8"?>
<!-- Generator: Adobe Illustrator 25.0.1, SVG Export Plug-In . SVG Version: 6.00 Build 0)  -->
<svg version="1.1" id="Layer_1" xmlns="http://www.w3.org/2000/svg" xmlns:xlink="http://www.w3.org/1999/xlink" x="0px" y="0px"
	 viewBox="0 0 720 288" style="enable-background:new 0 0 720 288;" xml:space="preserve">
<style type="text/css">
	.st0{fill:#3081C4;}
	.st1{fill:#CB1C68;}
	.st2{fill:#4489BD;}
</style>
<g>
	<g>
		<path class="st0" d="M218.8,77.1c-2.2,0-1.9,1.3-5.8,1.8s-1.6-1.6-2.2-2.9c-0.5-1.4-1.5-1.3-3.1-1.8c-1.6-0.6-1.7,0.9-6.2,2
			c-4.5,1.1-3.2-0.1-6.1-1.1c-2.9-1-3.1-2.3-7.2-4.9c-4.1-2.6-2,1.7-5.8,5c-3.8,3.3-9,4.2-10.2,4.1c-1.2-0.1-2.9-3.6-3.7-4.2
			c-0.7-0.6-1.9-0.7-3.8-2.8c-1.8-2-2.7-2.2-6.5-3.6c-3.8-1.4-2.6,1.7-4.2,3.4c-1.6,1.7-3.6-1.2-4.3-2.5c-0.7-1.3-0.3-2.5-0.8-3.6
			c-0.5-1.1-2.4-0.3-3.4-0.8c-1-0.5,0.5-2.3-0.8-3.3c-1.3-1-3.2-2.2-8.1-1.9c-4.9,0.3-7.4-0.1-9-0.4c-1.6-0.3-0.8,0.2-1.4,1.5
			c-0.5,1.3-2.9,2.9-5.3,4.1c-2.4,1.2-3.8-0.9-4.9-2.4c-1.1-1.5-3.8-1.6-5.6-1.9c-1.7-0.4-2.4-0.1-3.6-0.9
			c-1.2-0.8-7.7-1.7-11.4-2.5c-3.8-0.7-2.7-3.1-2.7-5.9c-0.1-2.8-0.4-5-1.2-7.2c-0.8-2.2-2.2-5.3-2-7.6c0.2-2.3-2-3-2-3
			s-0.8,0.1-3.8-0.4c-3-0.5-2.3,5.1-2.3,5.1l0.1,9.4C71,46.4,32.7,50,32.7,50s-1,4,0,8c1,4-1,3.7,0,6.3c1,2.6-1,0.7,0.3,9.5
			c1.2,8.8,2.3,17.9,4.1,22c1.8,4.1,2.3,4.3,2.9,9.1c0.5,4.8-1.6,13.8,0,20.6c1.6,6.9,0,11.7,3,17.5c3,5.8,4.1,8.7,4.1,9.8
			c0,0.9,0,7.1,0,9.7c0,0.7,0,1.1,0,1.1s0.1,4.3-3.2,6.3c-3.3,2.1-6.3,6.1-4.8,8.4c1.5,2.3,4.3,4.4,6,5.6c1.8,1.2,3.6,2.2,3.7,7
			s0.1,7.2,0.7,9.6c0.6,2.5-0.5,10.6,0,11.6c0.4,0.9,0.8,33.4,0.9,41.1l142.5-1.3c0,0,3-11.8-2.3-16.2c-5.4-4.4-12.2-9.2-13.6-10.9
			c-1.4-1.7,1.4-4.3-12.5-11.1c-0.3-0.2-0.6-0.3-0.9-0.4c-4.6,4.1-9.5,8.1-14.8,11.8l-1.5,1.6h-3.9l-0.5-0.3h-0.5l-0.9-0.6
			c-0.1-0.1-0.3-0.2-0.4-0.3c-0.2-0.1-0.3-0.2-0.5-0.3c-9.4-4.8-17.5-9.8-24.8-15.3c-7.8-5.9-13.5-11.4-18-17.4
			c-5.1-6.7-8.1-12.7-9.4-19c-0.9-4.1-1.7-10.2,0-16.6c0.2-0.9,0.5-1.8,0.8-2.8c3.5-10.1,10.4-17.2,20.7-21.1
			c5.6-2.1,11.8-2.8,18.8-2.1c0.5,0,1,0.1,1.5,0.2c-0.4-0.8-0.8-1.7-1.1-2.6c-1.2-4-1.1-8.2,0.3-12.9c0-0.1,0.1-0.2,0.1-0.3
			c0.1-0.3,0.1-0.5,0.2-0.8c1.9-6.2,5.3-11.2,10.2-14.9c3.4-2.6,6.8-3.9,10.5-4.1c5.4-0.2,9.7,2.3,12.4,7c1.8,3.2,2.1,6.6,2.2,9.8
			l0,0.3l0,0.3c-0.3,3.1-1,6-2,8.7c0.8-0.2,1.6-0.4,2.4-0.5c1.5-0.2,3.3-0.4,5.3-0.5c0.9-0.8,1.9-1.6,2.8-2.3
			c5.2-4.3,16.3-19.6,21.3-23.9c5-4.3,16.1-8.6,20.7-11.3c4.6-2.7,7.1-3.9,7.1-3.9S221,77.1,218.8,77.1z"/>
		<g>
			<g>
				<path class="st1" d="M144.3,221.7c-0.4-0.2-0.7-0.5-1.1-0.7c-8.5-4.3-16.6-9.2-24.2-14.9c-6.4-4.9-12.4-10.2-17.3-16.6
					c-4-5.2-7.3-10.9-8.6-17.5c-1.1-5.4-1.5-10.8,0.3-16.2c3-8.8,9-14.8,17.7-18c5.3-2,10.9-2.4,16.5-1.8c5.8,0.6,11.3,2.4,16.4,5.2
					c0.5,0.3,0.8,0.2,1.1-0.3c2.5-4.4,6.1-7.7,10.2-10.5c3.1-2.2,6.4-3.8,10.2-4.4c3.1-0.5,6.1-0.7,9.2-0.1c2.6,0.5,4.7,2.1,6.3,4.1
					c1.2,1.4,1.3,3.3,1.3,5.1c0.1,3.4-1.1,6.4-2.9,9.2c-2.2,3.4-4.6,6.5-7.5,9.4c-6,5.9-12.8,10.2-21.1,12.1
					c-5.7,1.2-11.5,1.5-17.4,0.9c-2.5-0.3-4.9-0.8-7.4-1.1c-0.3,0-0.6-0.1-0.8-0.1c-0.4,0.1-1.1,0.3-1.2,0.6
					c-0.1,0.3,0.1,1.1,0.5,1.3c0.8,0.5,1.6,1.1,2.5,1.3c1.8,0.5,3.6,0.8,5.4,1.2c0.3,0.1,0.7,0.1,1,0.2c0.3,0.2,0.5,0.5,0.7,0.7
					c-0.3,0.2-0.5,0.6-0.8,0.6c-1.1,0.1-2.1,0.2-3.2,0.1c-4-0.1-7.9-0.3-11.9-0.4c-0.4,0-0.8-0.1-1.2,0.1c-0.4,0.2-1,0.6-1,0.9
					c0,0.4,0.4,0.9,0.7,1.2c0.3,0.2,0.8,0.2,1.2,0.2c3.3,0.2,6.7,0.4,10,0.7c0.4,0,1,0.4,1,0.7c0.1,0.6-0.5,0.8-1,0.9
					c-0.6,0-1.2,0-1.8-0.1c-3.4-0.1-6.7-0.1-10.1-0.2c-0.5,0-1.1,0-1.6,0.1c-0.4,0.1-0.9,0.5-0.9,0.8c-0.1,0.3,0.2,1,0.5,1.1
					c0.6,0.3,1.3,0.5,1.9,0.5c3.3,0.1,6.5,0.2,9.8,0.3c0.6,0,1.2,0,1.8,0.2c0.3,0.1,0.9,0.5,0.8,0.7c0,0.4-0.4,0.7-0.8,1
					c-0.2,0.1-0.5,0.1-0.8,0.1c-2.8,0-5.6,0-8.4,0c-0.3,0-0.5,0-0.8,0c-0.6,0.1-1.3,0.3-1.2,1c0,0.7,0.6,1,1.3,1
					c1,0,2.1,0.1,3.1,0.1c2.3,0.1,4.5,0.1,6.8,0.2c0.1,0,0.2,0,0.3,0c0.7,0.1,1.6,0,1.6,0.9c0,0.8-0.9,1-1.5,1
					c-1.4,0.1-2.8,0-4.1,0.1c-1,0-2,0.1-3,0.2c-0.5,0.1-1.1,0.3-1.1,0.9c0,0.7,0.6,1,1.2,1c9.6,0.6,19,0.3,28.3-2.5
					c8.5-2.5,15.6-7.2,21.5-13.9c2.8-3.2,4.9-6.7,7-10.3c0.3-0.6,0.6-1.4,1.5-1.1c0.9,0.3,0.6,1.1,0.5,1.8c-0.3,2-1.2,3.7-2.1,5.4
					c-0.6,1-1.2,2-1.8,3c-0.2,0.4-0.1,0.9-0.1,1.3c0.5-0.1,1,0,1.4-0.2c0.5-0.3,0.8-0.7,1.2-1.2c2.8-3.7,5.6-7.4,8.4-11.1
					c0.4-0.5,0.8-0.9,1.2-1.3c0.3-0.2,0.9-0.3,1.1-0.1c0.3,0.2,0.4,0.7,0.3,1.1c0,0.4-0.3,0.8-0.5,1.1c-1.9,2.6-3.9,5.1-5.8,7.7
					c-0.3,0.5-0.7,1-0.8,1.5c-0.2,0.7,0.3,1.2,0.9,0.9c0.4-0.2,0.9-0.5,1.2-0.9c2.7-3.4,5.5-6.9,8.2-10.4c0.7-0.8,1.3-1.1,1.7-0.7
					c0.5,0.4,0.5,1.3-0.1,2.1c-2.5,3.3-5,6.6-7.4,9.9c-0.3,0.4-0.6,0.9-0.7,1.4c-0.1,0.3,0.1,0.7,0.3,0.9c0.2,0.1,0.7,0.1,0.9-0.1
					c0.4-0.3,0.7-0.7,1-1c1.8-2.2,3.6-4.4,5.4-6.6c0.3-0.3,0.6-0.6,1-0.8c0.3-0.1,0.7-0.1,0.9,0.1c0.2,0.2,0.3,0.7,0.2,1
					c0,0.3-0.3,0.5-0.5,0.8c-2.1,2.8-4.1,5.5-6.2,8.3c-0.2,0.2-0.4,0.5-0.5,0.8c-0.1,0.3-0.1,0.7-0.1,1.1c0.4,0,0.8,0.2,1.2,0.1
					c0.4-0.1,0.7-0.4,0.9-0.7c1.3-1.4,2.6-2.8,3.9-4.1c0.4-0.4,0.9-1.1,1.5-0.6c0.7,0.5,0.2,1.3-0.2,1.8c-1.5,2-3.1,3.9-4.7,5.8
					c-6.1,7.3-12.5,14.3-19.4,20.8c-8.6,8.2-17.2,16.4-27,23.1c-0.2,0.1-0.3,0.3-0.4,0.5C144.5,221.7,144.4,221.7,144.3,221.7z"/>
				<path class="st1" d="M159.4,112.4c-0.7,7.5-4.1,14.3-11.3,18.9c-2.2,1.4-4.7,2.1-7.4,1.8c-3.8-0.5-6-2.9-7.1-6.4
					c-1.1-3.6-0.8-7.1,0.3-10.6c1.5-5,4.3-9.2,8.4-12.4c2.3-1.7,4.8-2.9,7.7-3c3.5-0.1,6.1,1.4,7.8,4.4
					C159,107.1,159.3,109.3,159.4,112.4z"/>
			</g>
		</g>
	</g>
	<polygon class="st2" points="227.5,234.2 226.6,222.7 223.2,222.7 220.7,229.9 218.2,222.7 214.8,222.7 213.8,234.2 216.2,234.2 
		217,225.5 219.9,234.2 221.5,234.2 224.4,225.5 225.1,234.2 	"/>
	<path class="st0" d="M283.7,128.3c1.4,1.3,2,2.9,2,4.8v64.1c0,1.9-0.6,3.5-1.9,4.8c-1.3,1.3-2.9,1.9-5,1.9c-2.1,0-3.7-0.6-5-1.9
		c-1.3-1.3-1.9-2.9-1.9-4.9v-44.6l-18.3,27.9c-0.7,0.9-1.6,1.6-2.5,2.2c-1,0.6-2,0.8-3,0.7c-1,0.1-1.9-0.2-2.9-0.7
		c-1-0.6-1.8-1.3-2.5-2.2l-18.3-28.9v45.6c0,2-0.6,3.6-1.8,4.9c-1.2,1.3-2.7,1.9-4.6,1.9c-1.8,0-3.4-0.6-4.5-1.9
		c-1.2-1.3-1.8-2.9-1.8-4.8v-64.1c0-1.8,0.7-3.4,2-4.8c1.4-1.3,3-2,4.9-2c1.1,0,2.2,0.3,3.3,0.8c1.1,0.6,2,1.3,2.5,2.2l24.1,37.1
		l24.8-37.1c0.6-0.9,1.4-1.6,2.4-2.2c1-0.6,2-0.8,3-0.8C280.7,126.4,282.3,127,283.7,128.3z"/>
	<path class="st0" d="M308.3,136.4c-1-0.8-1.5-2.3-1.5-4.3v-2.1c0-2.1,0.6-3.5,1.7-4.3c1.1-0.8,2.9-1.2,5.3-1.2
		c2.6,0,4.4,0.4,5.4,1.2c1,0.8,1.5,2.3,1.5,4.3v2.1c0,2.1-0.5,3.6-1.6,4.4c-1.1,0.8-2.9,1.2-5.5,1.2
		C311.1,137.6,309.3,137.2,308.3,136.4z M318.5,202.1c-1.3,1.3-2.8,1.9-4.8,1.9c-1.9,0-3.5-0.6-4.8-1.9c-1.3-1.3-1.9-2.9-1.9-4.8
		v-45.7c0-1.9,0.6-3.5,1.9-4.8c1.3-1.3,2.8-1.9,4.8-1.9c1.9,0,3.5,0.6,4.8,1.9c1.3,1.3,1.9,2.9,1.9,4.8v45.7
		C320.3,199.2,319.7,200.8,318.5,202.1z"/>
	<path class="st0" d="M387.9,150.4c2.9,4.5,4.3,10.6,4.3,18.5v28.3c0,1.9-0.6,3.5-1.9,4.8c-1.3,1.3-2.8,1.9-4.8,1.9
		c-1.9,0-3.5-0.6-4.8-1.9c-1.3-1.3-1.9-2.9-1.9-4.8v-28.3c0-4.1-0.9-7.3-2.5-9.6c-1.7-2.3-4.6-3.5-8.7-3.5c-4.3,0-7.6,1.2-10.1,3.7
		c-2.4,2.5-3.7,5.6-3.7,9.4v28.3c0,1.9-0.6,3.5-1.9,4.8c-1.3,1.3-2.8,1.9-4.8,1.9c-1.9,0-3.5-0.6-4.8-1.9c-1.3-1.3-1.9-2.9-1.9-4.8
		v-45.7c0-1.9,0.6-3.5,1.9-4.8c1.3-1.3,2.8-1.9,4.8-1.9c1.9,0,3.5,0.6,4.8,1.9c1.3,1.3,1.9,2.9,1.9,4.8v1.9c2-2.7,4.6-4.9,7.8-6.9
		c3.2-1.9,6.7-2.9,10.6-2.9C379.8,143.7,385,145.9,387.9,150.4z"/>
	<path class="st0" d="M460.5,150.4c2.9,4.5,4.3,10.6,4.3,18.5v28.3c0,1.9-0.6,3.5-1.9,4.8c-1.3,1.3-2.8,1.9-4.8,1.9
		c-1.9,0-3.5-0.6-4.8-1.9c-1.3-1.3-1.9-2.9-1.9-4.8v-28.3c0-4.1-0.9-7.3-2.5-9.6c-1.7-2.3-4.6-3.5-8.7-3.5c-4.3,0-7.6,1.2-10.1,3.7
		c-2.4,2.5-3.7,5.6-3.7,9.4v28.3c0,1.9-0.6,3.5-1.9,4.8c-1.3,1.3-2.8,1.9-4.8,1.9c-1.9,0-3.5-0.6-4.8-1.9c-1.3-1.3-1.9-2.9-1.9-4.8
		v-45.7c0-1.9,0.6-3.5,1.9-4.8c1.3-1.3,2.8-1.9,4.8-1.9c1.9,0,3.5,0.6,4.8,1.9c1.3,1.3,1.9,2.9,1.9,4.8v1.9c2-2.7,4.6-4.9,7.8-6.9
		c3.2-1.9,6.7-2.9,10.6-2.9C452.4,143.7,457.6,145.9,460.5,150.4z"/>
	<path class="st1" d="M544.6,135.9c0,1.5-0.6,3.1-1.7,4.5c-1.2,1.5-2.7,2.3-4.5,2.3c-1.3,0-2.5-0.3-3.8-1c-3.6-1.7-7.5-2.5-11.7-2.5
		c-5.2,0-9.7,1.1-13.5,3.3c-3.8,2.2-6.8,5.2-8.9,9.2c-2.1,3.9-3.1,8.5-3.1,13.6c0,8.7,2.3,15.3,7,19.8c4.7,4.5,10.8,6.8,18.4,6.8
		c4.5,0,8.4-0.8,11.7-2.5c1.3-0.6,2.5-0.9,3.5-0.9c1.9,0,3.5,0.8,4.9,2.4c1.1,1.4,1.7,2.9,1.7,4.5c0,1.2-0.3,2.3-0.9,3.2
		c-0.6,1-1.4,1.7-2.5,2.2c-5.8,2.9-11.9,4.3-18.4,4.3c-7.2,0-13.9-1.5-19.9-4.6c-6.1-3.1-10.9-7.6-14.5-13.6
		c-3.6-6-5.4-13.2-5.4-21.7c0-7.5,1.7-14.3,5.1-20.3c3.4-6,8.2-10.6,14.2-14c6.1-3.4,12.9-5,20.5-5c6.6,0,12.7,1.4,18.3,4.3
		C543.5,131.4,544.6,133.3,544.6,135.9z"/>
	<path class="st1" d="M624.3,198c0,1.9-0.6,3.5-1.9,4.7c-1.3,1.2-2.7,1.8-4.3,1.8c-1.3,0-2.5-0.4-3.6-1.2c-1.1-0.8-1.9-1.9-2.5-3.3
		l-5.8-13.4h-33l-5.8,13.5c-0.5,1.4-1.3,2.5-2.4,3.3c-1.1,0.8-2.2,1.2-3.5,1.2c-1.9,0-3.4-0.5-4.4-1.5c-1-1-1.5-2.4-1.5-4.2
		c0-0.7,0.1-1.4,0.3-2.1l27.6-66.2c0.6-1.5,1.5-2.6,2.7-3.4c1.2-0.8,2.5-1.1,4-1c1.3,0,2.6,0.4,3.7,1.2c1.1,0.8,2,1.9,2.5,3.3
		l27.2,64.9C624.1,196.3,624.3,197.2,624.3,198z M578.7,173.9h22.1L589.7,148L578.7,173.9z"/>
	<path class="st1" d="M683.1,129.9c3.4,2.3,6.1,5.3,8.2,9.1c2.1,3.8,3.1,8,3.1,12.5c0,4.4-1,8.6-3.1,12.4c-2.1,3.8-4.8,6.9-8.2,9.1
		c-3.4,2.3-7,3.4-10.7,3.4h-19.3v20.9c0,2-0.6,3.6-1.8,4.9c-1.2,1.3-2.7,1.9-4.6,1.9c-1.8,0-3.4-0.6-4.5-1.9
		c-1.2-1.3-1.8-2.9-1.8-4.8v-64c0-1.9,0.6-3.5,1.9-4.8c1.3-1.3,2.9-1.9,4.8-1.9h25.2C676.1,126.5,679.7,127.6,683.1,129.9z
		 M676.5,161.9c1.4-1.2,2.5-2.7,3.3-4.6c0.8-1.9,1.3-3.9,1.3-5.9c0-2.1-0.4-4-1.3-5.9c-0.8-1.9-2-3.4-3.3-4.5
		c-1.4-1.1-2.8-1.7-4.2-1.7h-19.3v24.5h19.3C673.7,163.7,675.1,163.1,676.5,161.9z"/>
	<rect x="232.3" y="222.8" class="st0" width="2.4" height="11.5"/>
	<polygon class="st0" points="247.6,222.8 247.6,231 242.5,222.8 239.8,222.8 239.8,234.3 242.1,234.3 242.1,226.1 247.2,234.3 
		250,234.3 250,222.8 	"/>
	<polygon class="st0" points="263,222.8 263,231 257.9,222.8 255.1,222.8 255.1,234.3 257.5,234.3 257.5,226.1 262.6,234.3 
		265.4,234.3 265.4,222.8 	"/>
	<polygon class="st0" points="277.2,224.9 277.2,222.8 270.5,222.8 270.5,234.3 277.2,234.3 277.2,232.2 272.9,232.2 272.9,229.6 
		276.7,229.6 276.7,227.5 272.9,227.5 272.9,224.9 	"/>
	<path class="st0" d="M285.6,234.5c2.5,0,4.3-1.3,4.3-3.4c0-2.3-2-3-3.8-3.5c-1.3-0.4-2.4-0.7-2.4-1.6c0-0.9,0.8-1.3,1.8-1.3
		c1.1,0,1.9,0.5,2.2,1.6l2.2-0.5c-0.5-2.2-2.5-3-4.5-3c-2.3,0-4.1,1.2-4.1,3.3c0,2.1,1.8,2.8,3.5,3.3c1.4,0.4,2.7,0.8,2.7,1.9
		c0,0.9-0.8,1.4-1.8,1.4c-1.2,0-2.1-0.6-2.4-1.9l-2.4,0.5C281.2,233.3,283.1,234.5,285.6,234.5z"/>
	<path class="st0" d="M299.4,232.3c-2,0-3.5-1.4-3.5-3.7c0-2.3,1.5-3.7,3.5-3.7c2,0,3.5,1.4,3.5,3.7
		C302.9,230.9,301.3,232.3,299.4,232.3z M299.4,234.5c3.4,0,5.9-2.3,5.9-5.9c0-3.6-2.5-5.9-5.9-5.9c-3.4,0-5.9,2.3-5.9,5.9
		C293.5,232.2,296,234.5,299.4,234.5z"/>
	<polygon class="st0" points="316.3,222.8 308.4,222.8 308.4,224.9 311.2,224.9 311.2,234.3 313.5,234.3 313.5,224.9 316.3,224.9 	
		"/>
	<path class="st0" d="M322.9,229.9l1.7-4.9l1.7,4.9H322.9z M327.9,234.3h2.4l-4.2-11.5h-2.9l-4.2,11.5h2.4l0.8-2.4h4.8L327.9,234.3z
		"/>
	<path class="st0" d="M345.7,234.5c2.6,0,4.6-1.3,5.4-3.5l-2.2-0.8c-0.5,1.3-1.7,2.1-3.2,2.1c-2,0-3.5-1.4-3.5-3.7s1.5-3.7,3.5-3.7
		c1.5,0,2.7,0.8,3.2,2.1l2.2-0.8c-0.8-2.2-2.9-3.5-5.4-3.5c-3.4,0-5.9,2.3-5.9,5.9S342.3,234.5,345.7,234.5z"/>
	<path class="st0" d="M360.4,232.3c-2,0-3.5-1.4-3.5-3.7c0-2.3,1.5-3.7,3.5-3.7c2,0,3.5,1.4,3.5,3.7
		C363.9,230.9,362.3,232.3,360.4,232.3z M360.4,234.5c3.4,0,5.9-2.3,5.9-5.9c0-3.6-2.5-5.9-5.9-5.9c-3.4,0-5.9,2.3-5.9,5.9
		C354.5,232.2,357,234.5,360.4,234.5z"/>
	<polygon class="st0" points="383.8,234.3 382.8,222.8 379.4,222.8 376.9,230 374.5,222.8 371.1,222.8 370.1,234.3 372.5,234.3 
		373.3,225.6 376.2,234.3 377.7,234.3 380.6,225.6 381.4,234.3 	"/>
	<polygon class="st0" points="401.6,234.3 400.7,222.8 397.3,222.8 394.8,230 392.3,222.8 388.9,222.8 387.9,234.3 390.3,234.3 
		391.1,225.6 394,234.3 395.6,234.3 398.5,225.6 399.2,234.3 	"/>
	<path class="st0" d="M410.5,234.5c2.5,0,4.5-1.3,4.5-4.2v-7.5h-2.4v7.2c0,1.7-0.9,2.4-2.1,2.4c-1.2,0-2.1-0.7-2.1-2.4v-7.2H406v7.5
		C406,233.2,408,234.5,410.5,234.5z"/>
	<polygon class="st0" points="427.8,222.8 427.8,231 422.7,222.8 419.9,222.8 419.9,234.3 422.3,234.3 422.3,226.1 427.4,234.3 
		430.2,234.3 430.2,222.8 	"/>
	<rect x="435.3" y="222.8" class="st0" width="2.4" height="11.5"/>
	<polygon class="st0" points="449.5,222.8 441.6,222.8 441.6,224.9 444.4,224.9 444.4,234.3 446.7,234.3 446.7,224.9 449.5,224.9 	
		"/>
	<polygon class="st0" points="455.9,234.3 458.3,234.3 458.3,228.8 462.1,222.8 459.4,222.8 457.1,226.7 454.7,222.8 452.1,222.8 
		455.9,228.8 	"/>
	<path class="st0" d="M475,229.9l1.7-4.9l1.7,4.9H475z M479.9,234.3h2.4l-4.2-11.5h-2.9l-4.2,11.5h2.4l0.8-2.4h4.8L479.9,234.3z"/>
	<path class="st0" d="M491.3,234.5c2.6,0,4.6-1.3,5.4-3.5l-2.2-0.8c-0.5,1.3-1.7,2.1-3.2,2.1c-2,0-3.5-1.4-3.5-3.7s1.5-3.7,3.5-3.7
		c1.5,0,2.7,0.8,3.2,2.1l2.2-0.8c-0.8-2.2-2.9-3.5-5.4-3.5c-3.4,0-5.9,2.3-5.9,5.9S488,234.5,491.3,234.5z"/>
	<polygon class="st0" points="507.6,222.8 499.7,222.8 499.7,224.9 502.5,224.9 502.5,234.3 504.8,234.3 504.8,224.9 507.6,224.9 	
		"/>
	<rect x="511.5" y="222.8" class="st0" width="2.4" height="11.5"/>
	<path class="st0" d="M524.1,232.3c-2,0-3.5-1.4-3.5-3.7c0-2.3,1.5-3.7,3.5-3.7s3.5,1.4,3.5,3.7
		C527.6,230.9,526.1,232.3,524.1,232.3z M524.1,234.5c3.4,0,5.9-2.3,5.9-5.9c0-3.6-2.5-5.9-5.9-5.9c-3.4,0-5.9,2.3-5.9,5.9
		C518.2,232.2,520.7,234.5,524.1,234.5z"/>
	<polygon class="st0" points="542.2,222.8 542.2,231 537.1,222.8 534.4,222.8 534.4,234.3 536.7,234.3 536.7,226.1 541.8,234.3 
		544.6,234.3 544.6,222.8 	"/>
	<path class="st0" d="M561.4,227.8c-0.4,0.3-1,0.4-1.9,0.4h-1.1v-3.4h1.1c0.9,0,1.4,0,1.8,0.4c0.3,0.2,0.5,0.7,0.5,1.3
		C561.9,227.1,561.7,227.5,561.4,227.8z M562.8,223.3c-0.6-0.3-1.5-0.5-2.9-0.5h-3.8v11.5h2.4v-4.1h1.4c1.4,0,2.3-0.2,2.9-0.7
		c1.1-0.7,1.5-1.9,1.5-3.2C564.3,224.9,563.8,223.9,562.8,223.3z"/>
	<path class="st0" d="M571.2,229.9l1.7-4.9l1.7,4.9H571.2z M576.2,234.3h2.4l-4.2-11.5h-2.9l-4.2,11.5h2.4l0.8-2.4h4.8L576.2,234.3z
		"/>
	<path class="st0" d="M584.9,224.8h1.1c0.9,0,1.4,0.1,1.8,0.3c0.3,0.3,0.5,0.7,0.5,1.4c0,0.7-0.2,1.1-0.6,1.4
		c-0.4,0.2-0.9,0.3-1.8,0.3h-1.1V224.8z M588.6,234.3h2.8l-3.1-4.5c0.3-0.1,0.5-0.2,0.7-0.3c1.2-0.6,1.6-1.8,1.6-3.2
		c0-1.4-0.5-2.5-1.6-3.1c-0.6-0.3-1.4-0.5-2.8-0.5h-3.8v11.5h2.4v-4.2h1L588.6,234.3z"/>
	<polygon class="st0" points="602.2,222.8 594.3,222.8 594.3,224.9 597.1,224.9 597.1,234.3 599.4,234.3 599.4,224.9 602.2,224.9 	
		"/>
	<polygon class="st0" points="614,222.8 614,231 608.8,222.8 606.1,222.8 606.1,234.3 608.5,234.3 608.5,226.1 613.6,234.3 
		616.4,234.3 616.4,222.8 	"/>
	<polygon class="st0" points="628.2,224.9 628.2,222.8 621.5,222.8 621.5,234.3 628.2,234.3 628.2,232.2 623.9,232.2 623.9,229.6 
		627.7,229.6 627.7,227.5 623.9,227.5 623.9,224.9 	"/>
	<path class="st0" d="M635.2,224.8h1.1c0.9,0,1.4,0.1,1.8,0.3c0.3,0.3,0.5,0.7,0.5,1.4c0,0.7-0.2,1.1-0.6,1.4
		c-0.4,0.2-0.9,0.3-1.8,0.3h-1.1V224.8z M638.8,234.3h2.8l-3.1-4.5c0.3-0.1,0.5-0.2,0.7-0.3c1.2-0.6,1.6-1.8,1.6-3.2
		c0-1.4-0.5-2.5-1.6-3.1c-0.6-0.3-1.4-0.5-2.8-0.5h-3.8v11.5h2.4v-4.2h1L638.8,234.3z"/>
	<path class="st0" d="M649.6,234.5c2.5,0,4.3-1.3,4.3-3.4c0-2.3-2-3-3.8-3.5c-1.3-0.4-2.4-0.7-2.4-1.6c0-0.9,0.8-1.3,1.8-1.3
		c1.1,0,1.9,0.5,2.2,1.6l2.2-0.5c-0.5-2.2-2.5-3-4.5-3c-2.3,0-4.1,1.2-4.1,3.3c0,2.1,1.8,2.8,3.5,3.3c1.4,0.4,2.7,0.8,2.7,1.9
		c0,0.9-0.8,1.4-1.8,1.4c-1.2,0-2.1-0.6-2.4-1.9l-2.4,0.5C645.2,233.3,647.1,234.5,649.6,234.5z"/>
	<polygon class="st0" points="658.2,234.3 660.6,234.3 660.6,229.6 665.5,229.6 665.5,234.3 667.9,234.3 667.9,222.8 665.5,222.8 
		665.5,227.5 660.6,227.5 660.6,222.8 658.2,222.8 	"/>
	<rect x="673" y="222.8" class="st0" width="2.4" height="11.5"/>
	<path class="st0" d="M685.8,227.8c-0.4,0.3-1,0.4-1.9,0.4h-1.1v-3.4h1.1c0.9,0,1.4,0,1.8,0.4c0.3,0.2,0.5,0.7,0.5,1.3
		C686.3,227.1,686.1,227.5,685.8,227.8z M687.2,223.3c-0.6-0.3-1.5-0.5-2.9-0.5h-3.8v11.5h2.4v-4.1h1.4c1.4,0,2.3-0.2,2.9-0.7
		c1.1-0.7,1.5-1.9,1.5-3.2C688.7,224.9,688.2,223.9,687.2,223.3z"/>
</g>
</svg>
